HIERARCHY
ROOT pelvis
{
  OFFSET 0 100 0
  CHANNELS 6 Xposition Yposition Zposition Zrotation Xrotation Yrotation
  JOINT pelvis_right_femur
  {
    OFFSET -10.78128 -3.44521 -0.5502486
    CHANNELS 3 Zrotation Xrotation Yrotation
    JOINT right_femur_tibia
    {
      OFFSET -0.8047443 -44.0398 -0.1307829
      CHANNELS 3 Zrotation Xrotation Yrotation
      JOINT right_tibia_foot
      {
        OFFSET 3.006224 -47.83518 -5
        CHANNELS 3 Zrotation Xrotation Yrotation
        End Site
        {
          OFFSET 0 -5 15
        }
      }
    }
  }
  JOINT pelvis_left_femur
  {
    OFFSET 10.78128 -3.44521 -0.5502486
    CHANNELS 3 Zrotation Xrotation Yrotation
    JOINT left_femur_tibia
    {
      OFFSET 0.8047443 -44.0398 -0.1307829
      CHANNELS 3 Zrotation Xrotation Yrotation
      JOINT left_tibia_foot
      {
        OFFSET -4.370144 -48.10324 -4.275266
        CHANNELS 3 Zrotation Xrotation Yrotation
        End Site
        {
          OFFSET 0 -5 15
        }
      }
    }
  }
  JOINT pelvis_spine1
  {
    OFFSET 0 6.468898 -3.129235
    CHANNELS 3 Zrotation Xrotation Yrotation
    JOINT spine1
    {
      OFFSET 0 23.15396 4.99043
      CHANNELS 3 Zrotation Xrotation Yrotation
      JOINT spine2
      {
        OFFSET 0 20.79997 -5.064912
        CHANNELS 3 Zrotation Xrotation Yrotation
        JOINT neck
        {
          OFFSET 0 14.38658 9.616178
          CHANNELS 3 Zrotation Xrotation Yrotation
          End Site
          {
            OFFSET 0 20 0
          }
        }
      }
      JOINT right_manubrium
      {
        OFFSET -5.722621 16.35077 3.967754
        CHANNELS 3 Zrotation Xrotation Yrotation
        JOINT right_clavicle
        {
          OFFSET -13.16364 1.694482 -4.693211
          CHANNELS 3 Zrotation Xrotation Yrotation
          JOINT right_humerus
          {
            OFFSET -28.5034 -0.3100689 -2.792744
            CHANNELS 3 Zrotation Xrotation Yrotation
            JOINT right_radius
            {
              OFFSET -25.15693 0.02248979 -1.271978
              CHANNELS 3 Zrotation Xrotation Yrotation
              End Site
              {
                OFFSET -15 0 0
              }
            }
          }
        }
      }
      JOINT left_manubrium
      {
        OFFSET 5.722621 16.35077 3.967754
        CHANNELS 3 Zrotation Xrotation Yrotation
        JOINT left_clavicle
        {
          OFFSET 13.16364 1.694482 -4.693211
          CHANNELS 3 Zrotation Xrotation Yrotation
          JOINT left_humerus
          {
            OFFSET 29.39168 -1.063119 -2.237045
            CHANNELS 3 Zrotation Xrotation Yrotation
            JOINT left_radius
            {
              OFFSET 24.59957 -0.9528479 0.9047498
              CHANNELS 3 Zrotation Xrotation Yrotation
              End Site
              {
                OFFSET 15 -0 -0
              }
            }
          }
        }
      }
    }
  }
}
MOTION
Frames: 10
Frame Time: 0.0416666666667
0 103.5113 0 1.45387 -1.697251 -0.009573999 2.698078 -11.62216 9.212159 -3.303364e-06 35.60155 2.569256e-06 -6.764694 -18.373 -4.988901 -7.184198 6.619491 -22.41509 6.383748e-06 5.848841 4.036026e-06 8.207266 -17.03057 27.85693 -4.571337 -3.290287 4.811258 2.315976 9.041886 -7.738001 1.258145 22.73394 6.386472 2.937392 -23.50086 8.662656 6.283408 -20.00828 11.45299 85.25654 37.03721 -17.65215 -1.713515e-06 -1.059762e-06 16.55049 -7.568898 8.711411 5.189715 5.04454 -19.21181 -1.361353 -95.22834 29.89679 23.62055 -4.968384e-08 -1.19869e-07 -14.46847 3.331049 17.63352 10.01619
0.296063 103.5214 1.355827 1.215008 -1.600052 0.0821805 3.014184 -14.05304 9.201401 -3.336025e-06 37.86732 2.479792e-06 -6.458903 -17.32599 -4.942935 -7.099604 8.325334 -22.52615 5.600472e-06 5.625457 3.935653e-06 7.739662 -17.57483 26.8619 -4.329685 -3.102161 4.560558 2.363124 9.119337 -7.907626 1.203595 22.56978 6.577775 2.914441 -23.72397 8.879966 6.372191 -19.91835 11.49513 85.85985 36.72744 -18.38521 -1.32966e-06 -9.605342e-07 16.48888 -7.387429 8.897862 5.047587 4.992005 -19.32769 -1.567209 -95.02418 29.86954 23.51982 1.485019e-07 -8.340301e-08 -15.18641 3.408726 17.4058 10.15378
0.6062757 103.5602 2.801953 0.9386209 -1.308228 0.2932785 3.429773 -16.79507 8.973596 -3.417312e-06 38.45111 2.483034e-06 -6.231085 -16.0797 -4.691564 -6.955555 9.918731 -22.48784 4.84523e-06 5.479389 3.271324e-06 7.094789 -18.26162 25.73144 -4.019867 -2.847798 4.305047 2.441231 9.142049 -8.052709 1.135225 22.37726 6.82493 2.967198 -24.049 9.08727 6.374795 -19.7687 11.52119 86.38684 36.40519 -19.13523 -9.482994e-07 -7.545339e-07 16.22496 -7.320868 9.009175 4.96441 5.092054 -19.5489 -1.759758 -94.67598 29.7512 23.15897 2.38591e-07 -1.852013e-09 -16.24978 3.625563 17.16264 10.1071
0.9195216 103.5635 4.410175 0.657286 -0.799417 0.5823005 3.894474 -19.62369 8.577762 -3.304581e-06 37.27947 2.424407e-06 -6.063755 -14.54914 -4.234176 -6.796248 11.3274 -22.31735 4.213911e-06 5.455724 1.898737e-06 6.362211 -19.04216 24.60602 -3.682874 -2.592426 4.079622 2.549295 9.128225 -8.172223 1.055501 22.1361 7.128804 3.12248 -24.48428 9.266801 6.31488 -19.56729 11.53453 86.78294 36.12668 -19.88748 -6.187383e-07 -4.62376e-07 15.75332 -7.411548 9.046079 4.960691 5.351459 -19.87237 -1.914129 -94.21199 29.52555 22.57987 1.869319e-07 1.26867e-07 -17.57932 3.941836 16.89848 9.90304
1.220787 103.4432 6.244727 0.3966373 -0.1358476 0.892903 4.397528 -22.45007 8.088987 -2.948912e-06 34.22779 2.277668e-06 -5.887921 -12.8911 -3.6501 -6.626313 12.53344 -22.02019 3.841275e-06 5.555633 -2.043384e-07 5.600244 -19.9287 23.61328 -3.340854 -2.354633 3.914133 2.68163 9.091478 -8.266461 0.9867627 21.86631 7.465095 3.36604 -24.9719 9.422785 6.182545 -19.33263 11.53761 87.10439 35.83684 -20.66502 -3.659165e-07 -1.106932e-07 15.14063 -7.686204 9.038344 5.019097 5.7871 -20.30438 -2.026347 -93.70801 29.19414 21.77336 -3.120979e-09 3.115904e-07 -19.16722 4.301917 16.61067 9.582262
1.499267 103.1645 8.334679 0.15027 0.6296192 1.181027 4.89101 -24.99176 7.563131 -2.537413e-06 30.05368 2.162722e-06 -5.796095 -11.17474 -2.989779 -6.460463 13.45961 -21.63922 3.669699e-06 5.891839 -2.701819e-06 4.842399 -20.7348 22.73148 -3.009554 -2.151143 3.793206 2.829806 9.034263 -8.332598 0.918543 21.55911 7.800716 3.664933 -25.4827 9.529344 6.027753 -19.06501 11.52796 87.21094 35.63047 -21.34645 -1.837571e-07 2.646897e-07 14.40762 -8.028834 8.980076 5.122291 6.290462 -20.75529 -2.085297 -93.11824 28.80369 20.88093 -2.919454e-07 5.185403e-07 -20.74389 4.675343 16.31533 9.193384
1.746247 102.7194 10.74609 -0.1083029 1.433533 1.428244 5.347805 -27.20787 7.001217 -1.845486e-06 25.36692 1.866328e-06 -5.795225 -9.58065 -2.375459 -6.256574 14.2571 -21.13305 3.282309e-06 6.459776 -5.13255e-06 3.961461 -21.35964 21.77057 -2.675364 -1.987444 3.674128 2.984011 8.926726 -8.399375 0.8600923 21.25729 8.081172 3.93953 -25.95827 9.591437 5.840145 -18.74881 11.4803 87.293 35.48488 -21.98074 -4.008869e-08 6.145778e-07 13.58985 -8.398963 8.950303 5.260342 6.779911 -21.18947 -2.097442 -92.47383 28.38676 19.92814 -5.614753e-07 6.947668e-07 -22.26055 5.054978 16.01107 8.788106
1.962698 102.1638 13.57512 -0.3986847 2.145182 1.643633 5.73854 -28.81507 6.476414 -7.191314e-07 21.32763 1.235083e-06 -5.888324 -8.244155 -1.946074 -6.000674 14.97828 -20.52508 2.336653e-06 7.520028 -7.033866e-06 2.834346 -21.59629 20.61283 -2.326975 -1.866726 3.528066 3.116575 8.759184 -8.464828 0.8300987 21.02918 8.248985 4.111726 -26.33532 9.622902 5.644837 -18.38239 11.38135 87.53222 35.37952 -22.54107 9.560043e-08 8.870654e-07 12.77306 -8.735048 9.015357 5.422032 7.123628 -21.5013 -2.068572 -91.9514 28.017 19.10683 -7.008745e-07 7.789521e-07 -23.43751 5.376373 15.70498 8.503544
2.160491 101.6298 16.93072 -0.757609 2.718292 1.86036 6.07664 -29.59542 6.049509 8.849245e-07 18.84301 1.753424e-07 -6.127521 -7.190485 -1.758546 -5.678445 15.60812 -19.81578 5.657567e-07 9.391311 -8.007754e-06 1.390136 -21.18714 19.11108 -1.937881 -1.801473 3.334972 3.22191 8.543924 -8.543345 0.814833 20.86126 8.270637 4.131634 -26.60994 9.605469 5.492989 -17.97287 11.23548 87.91759 35.37472 -22.98168 2.605635e-07 1.045934e-06 11.99757 -8.933999 9.228384 5.597633 7.184397 -21.61023 -2.008863 -91.55486 27.72608 18.61574 -6.376924e-07 7.137713e-07 -24.04496 5.609719 15.38429 8.428917
2.354449 101.2785 20.82683 -1.163281 3.050176 2.110619 6.36543 -29.47019 5.771716 2.304138e-06 18.38774 -9.333879e-07 -6.564136 -6.430175 -1.804725 -5.325202 15.97894 -19.04374 -1.663846e-06 12.27861 -7.797942e-06 -0.184498 -20.0437 17.40355 -1.526107 -1.752795 3.107707 3.29503 8.353882 -8.628495 0.7892929 20.74391 8.155238 4.00581 -26.76089 9.511239 5.442659 -17.55267 11.09014 88.28946 35.5284 -23.22797 4.648918e-07 1.086496e-06 11.2742 -8.93766 9.567866 5.763881 6.902791 -21.50997 -1.962492 -91.19259 27.52445 18.51342 -4.18176e-07 5.001353e-07 -23.97045 5.754577 15.05784 8.552547
